<?xml version="1.0"?>
<svg xmlns="http://www.w3.org/2000/svg" height="512px" viewBox="0 0 448 448" width="512px" class=""><g><path d="m312 288h16v16h-16zm0 0" data-original="#000000" class="active-path" fill="#000000"/><path d="m312 352h16v16h-16zm0 0" data-original="#000000" class="active-path" fill="#000000"/><path d="m248 224h16v16h-16zm0 0" data-original="#000000" class="active-path" fill="#000000"/><path d="m248 288h16v16h-16zm0 0" data-original="#000000" class="active-path" fill="#000000"/><path d="m376 352h16v16h-16zm0 0" data-original="#000000" class="active-path" fill="#000000"/><path d="m376 224h16v16h-16zm0 0" data-original="#000000" class="active-path" fill="#000000"/><path d="m312 224h16v16h-16zm0 0" data-original="#000000" class="active-path" fill="#000000"/><path d="m448 80h-40v80h16v16h-272v-16h16v-80h-40v328c0 13.253906-10.746094 24-24 24h-72v16h416zm-232 296c0 4.417969-3.582031 8-8 8h-32c-4.417969 0-8-3.582031-8-8v-32c0-4.417969 3.582031-8 8-8h32c4.417969 0 8 3.582031 8 8zm0-64c0 4.417969-3.582031 8-8 8h-32c-4.417969 0-8-3.582031-8-8v-32c0-4.417969 3.582031-8 8-8h32c4.417969 0 8 3.582031 8 8zm0-64c0 4.417969-3.582031 8-8 8h-32c-4.417969 0-8-3.582031-8-8v-32c0-4.417969 3.582031-8 8-8h32c4.417969 0 8 3.582031 8 8zm64 128c0 4.417969-3.582031 8-8 8h-32c-4.417969 0-8-3.582031-8-8v-32c0-4.417969 3.582031-8 8-8h32c4.417969 0 8 3.582031 8 8zm0-64c0 4.417969-3.582031 8-8 8h-32c-4.417969 0-8-3.582031-8-8v-32c0-4.417969 3.582031-8 8-8h32c4.417969 0 8 3.582031 8 8zm0-64c0 4.417969-3.582031 8-8 8h-32c-4.417969 0-8-3.582031-8-8v-32c0-4.417969 3.582031-8 8-8h32c4.417969 0 8 3.582031 8 8zm64 128c0 4.417969-3.582031 8-8 8h-32c-4.417969 0-8-3.582031-8-8v-32c0-4.417969 3.582031-8 8-8h32c4.417969 0 8 3.582031 8 8zm0-64c0 4.417969-3.582031 8-8 8h-32c-4.417969 0-8-3.582031-8-8v-32c0-4.417969 3.582031-8 8-8h32c4.417969 0 8 3.582031 8 8zm0-64c0 4.417969-3.582031 8-8 8h-32c-4.417969 0-8-3.582031-8-8v-32c0-4.417969 3.582031-8 8-8h32c4.417969 0 8 3.582031 8 8zm64 128c0 4.417969-3.582031 8-8 8h-32c-4.417969 0-8-3.582031-8-8v-32c0-4.417969 3.582031-8 8-8h32c4.417969 0 8 3.582031 8 8zm0-64c0 4.417969-3.582031 8-8 8h-32c-4.417969 0-8-3.582031-8-8v-32c0-4.417969 3.582031-8 8-8h32c4.417969 0 8 3.582031 8 8zm0-64c0 4.417969-3.582031 8-8 8h-32c-4.417969 0-8-3.582031-8-8v-32c0-4.417969 3.582031-8 8-8h32c4.417969 0 8 3.582031 8 8zm0 0" data-original="#000000" class="active-path" fill="#000000"/><path d="m184 352h16v16h-16zm0 0" data-original="#000000" class="active-path" fill="#000000"/><path d="m8 416h96c4.417969 0 8-3.582031 8-8v-352c0-4.417969-3.582031-8-8-8h-80v24c0 4.417969-3.582031 8-8 8s-8-3.582031-8-8v-68c0-2.210938-1.789062-4-4-4s-4 1.789062-4 4v404c0 4.417969 3.582031 8 8 8zm0 0" data-original="#000000" class="active-path" fill="#000000"/><path d="m376 288h16v16h-16zm0 0" data-original="#000000" class="active-path" fill="#000000"/><path d="m248 352h16v16h-16zm0 0" data-original="#000000" class="active-path" fill="#000000"/><path d="m184 288h16v16h-16zm0 0" data-original="#000000" class="active-path" fill="#000000"/><path d="m382.207031 14.511719c-2.777343 1.980469-6.507812 1.980469-9.285156 0l-17.792969-12.679688-17.761718 12.671875c-2.78125 1.984375-6.515626 1.984375-9.296876 0l-17.75-12.671875-17.753906 12.671875c-2.78125 1.988282-6.519531 1.988282-9.300781 0l-17.714844-12.671875-17.742187 12.671875c-2.78125 1.988282-6.523438 1.988282-9.304688 0l-17.703125-12.671875-17.777343 12.671875c-2.78125 1.988282-6.519532 1.988282-9.304688 0l-9.71875-6.945312v152.441406h208v-152.464844zm-54.207031 17.488281h16v16h-16zm-32 0h16v16h-16zm-32 0h16v16h-16zm-32 0h16v16h-16zm-32 0h16v16h-16zm16 112h-16v-16h16zm32 0h-16v-16h16zm32 0h-16v-16h16zm32 0h-16v-16h16zm0-32h-112v-16h112zm32 32h-16v-16h16zm32 0h-16v-16h16zm0-64h-176v-16h176zm0-32h-16v-16h16zm0 0" data-original="#000000" class="active-path" fill="#000000"/><path d="m184 224h16v16h-16zm0 0" data-original="#000000" class="active-path" fill="#000000"/></g> </svg>
