<?xml version="1.0"?>
<svg xmlns="http://www.w3.org/2000/svg" viewBox="-14 0 512 512" width="512px" height="512px"><path d="m483.363281 172.785156c0-20.589844-16.75-37.339844-37.335937-37.339844h-24.691406v-2.789062c12.5-11.609375 20.34375-28.171875 20.34375-46.539062v-22.578126c0-35.035156-28.503907-63.539062-63.539063-63.539062s-63.539063 28.503906-63.539063 63.539062v22.578126c0 18.371093 7.847657 34.9375 20.351563 46.546874v9.242188l-17.507813 4.273438c-2.566406.625-5.082031 1.421874-7.527343 2.382812-2.449219-.960938-4.960938-1.757812-7.527344-2.382812l-17.511719-4.273438v-9.25c12.5-11.609375 20.34375-28.171875 20.34375-46.539062v-22.578126c0-35.035156-28.503906-63.539062-63.539062-63.539062s-63.539063 28.503906-63.539063 63.539062v22.578126c0 18.367187 7.84375 34.929687 20.34375 46.539062v9.25l-17.507812 4.273438c-2.566407.625-5.078125 1.421874-7.527344 2.382812-2.449219-.960938-4.960937-1.757812-7.523437-2.382812l-17.511719-4.273438v-9.25c12.5-11.609375 20.34375-28.171875 20.34375-46.539062v-22.578126c0-35.035156-28.503907-63.539062-63.539063-63.539062s-63.539062 28.503906-63.539062 63.539062v22.578126c0 18.367187 7.84375 34.929687 20.34375 46.539062v2.789062h-24.691406c-20.585938 0-37.335938 16.75-37.335938 37.339844 0 4.691406.878906 9.183594 2.46875 13.324219-1.628906 5.410156-2.46875 11.015625-2.46875 16.75v67.457031c0 64.558594 25.140625 125.25 70.785156 170.898438 45.648438 45.648437 106.339844 70.785156 170.898438 70.785156 64.554687 0 125.246094-25.140625 170.894531-70.785156 45.648437-45.648438 70.785156-106.34375 70.785156-170.898438v-67.460937c0-5.730469-.839843-11.335938-2.464843-16.746094 1.585937-4.140625 2.464843-8.632813 2.464843-13.324219zm-44.671875-7.339844h7.335938c4.046875 0 7.335937 3.292969 7.335937 7.339844 0 4.042969-3.289062 7.335938-7.335937 7.335938s-7.335938-3.292969-7.335938-7.335938zm-94.089844-101.90625c0-18.492187 15.046876-33.539062 33.539063-33.539062s33.539063 15.046875 33.539063 33.539062v22.578126c0 18.496093-15.046876 33.539062-33.539063 33.539062s-33.539063-15.042969-33.539063-33.539062zm-102.917968 412.15625c-22.023438-23.042968-39.917969-49.023437-53.332032-77.035156h106.660157c-13.414063 28.011719-31.308594 53.992188-53.328125 77.035156zm-65.699219-107.035156c-9.28125-26.585937-14.785156-54.585937-16.203125-83.34375h163.800781c-1.417969 28.757813-6.921875 56.757813-16.203125 83.34375zm-2.53125-203.515625.003906-.007812.003907.007812zm136.453125 0 .007812-.011719.007813.011719zm-101.761719-101.605469c0-18.492187 15.046875-33.539062 33.539063-33.539062 18.492187 0 33.539062 15.046875 33.539062 33.539062v22.578126c0 18.496093-15.046875 33.539062-33.539062 33.539062-18.492188 0-33.539063-15.042969-33.539063-33.539062zm20.34375 101.933594v-17.203125c4.257813.902344 8.671875 1.386719 13.195313 1.386719 4.527344 0 8.9375-.484375 13.199218-1.386719v17.203125l40.03125 9.761719v80.082031h-106.460937v-80.082031zm-156.804687-101.933594c0-18.492187 15.046875-33.539062 33.539062-33.539062 18.496094 0 33.539063 15.046875 33.539063 33.539062v22.578126c0 18.496093-15.042969 33.539062-33.539063 33.539062-18.492187 0-33.535156-15.042969-33.535156-33.539062v-22.578126zm-34.347656 101.90625h7.339843v7.339844c0 4.042969-3.292969 7.335938-7.339843 7.335938-4.042969 0-7.335938-3.292969-7.335938-7.335938 0-4.046875 3.289062-7.339844 7.335938-7.339844zm-7.335938 43.949219c2.371094.472657 4.824219.726563 7.335938.726563 20.589843 0 37.335937-16.75 37.335937-37.335938v-3.082031l17.355469-4.230469v-17.203125c4.257812.902344 8.671875 1.386719 13.195312 1.386719 4.523438 0 8.9375-.484375 13.195313-1.386719v17.203125l40.03125 9.761719v80.082031h-128.449219zm99.757812 75.921875c1.277344 28.445313 6.210938 56.339844 14.710938 83.34375h-90.191406c-13.289063-25.222656-21.648438-53.433594-23.753906-83.34375zm-56.296874 113.34375h82.082031c12.324219 28.984375 28.621093 55.78125 48.664062 80.003906-53.023437-9.511718-99.257812-38.832031-130.746093-80.003906zm205.695312 80.003906c20.042969-24.222656 36.339844-51.019531 48.664062-80.003906h82.082032c-31.488282 41.171875-77.722656 70.492188-130.746094 80.003906zm149.929688-110.003906h-90.1875c8.496093-27.003906 13.429687-54.898437 14.707031-83.34375h99.234375c-2.105469 29.910156-10.460938 58.121094-23.753906 83.34375zm-104.175782-113.34375v-80.082031l40.042969-9.761719v-17.199218c4.257813.902343 8.664063 1.382812 13.1875 1.382812s8.9375-.484375 13.195313-1.386719v17.203125l17.355468 4.230469v3.082031c0 20.585938 16.746094 37.335938 37.335938 37.335938 2.511718 0 4.964844-.253906 7.335937-.726563v45.921875zm0 0" fill="#FFFFFF"/></svg>
