<?xml version="1.0"?>
<svg xmlns="http://www.w3.org/2000/svg" xmlns:xlink="http://www.w3.org/1999/xlink" version="1.1" id="Capa_1" x="0px" y="0px" width="512px" height="512px" viewBox="0 0 491.819 491.82" style="enable-background:new 0 0 491.819 491.82;" xml:space="preserve" class=""><g><g>
	<g>
		<path d="M334.002,491.82c6.044,0,12.23-0.373,18.408-1.1c68.448-8.281,93.521-52.135,102.376-77.533    c5.059-14.43-4.609-29.959-16.83-35.419l-80.325-35.697c-3.854-1.712-8.462-2.61-13.339-2.61c-9.936,0-19.891,3.691-25.981,9.61    l-25.303,24.509c-3.777,3.652-10.461,6.101-16.648,6.101c-2.639,0-4.973-0.469-6.722-1.357    c-17.079-8.55-43.94-25.656-74.884-58.476c-27.444-29.137-40.498-49.103-46.608-60.722c-3.414-6.503,0.163-17.768,5.508-23.122    l22.52-22.501c9.352-9.361,13.569-26.574,9.591-39.206l-25.322-80.411c-3.844-12.221-16.839-24.882-32.025-24.882    c-20.961,0.698-50.423,8.205-71.604,40c-32.751,49.151-30.791,143.763,29.491,210.939    c56.084,62.481,139.373,131.466,140.109,132.068C228.222,453.618,271.387,491.82,334.002,491.82z M96.986,310.342    c-53.942-60.11-58.149-148.524-28.238-193.401c17.777-26.699,42.697-33.02,60.483-33.622c7.249,0.028,15.367,8.004,17.538,14.86    L172.1,178.59c2.372,7.573-0.459,19.135-6.062,24.747l-22.52,22.511c-9.209,9.189-14.65,27.425-8.071,39.933    c6.55,12.451,20.358,33.642,48.864,63.897c32.407,34.357,60.779,52.393,78.88,61.468c3.711,1.864,8.263,2.85,13.188,2.85    c9.964,0,20.157-3.873,26.603-10.127l25.303-24.519c3.452-3.337,9.878-5.575,15.988-5.575c2.859,0,5.46,0.488,7.525,1.396    l80.315,35.697c6.12,2.725,11.438,10.987,9.133,17.566c-7.756,22.252-29.825,60.692-90.558,68.027    c-5.526,0.669-11.14,1.004-16.687,1.004c-56.208,0-96.447-34.77-98.35-36.442C226.998,433.823,149.522,368.865,96.986,310.342z" data-original="#000000" class="active-path" data-old_color="#23c3ff" fill="#23c3ff"/>
		<path d="M174.509,69.492c1.195,0.803,2.582,1.224,3.997,1.224c2.391,0,4.609-1.176,5.958-3.146l38.25-56.448    c2.2-3.279,1.349-7.745-1.941-9.974c-3.137-2.113-7.784-1.214-9.936,1.923l-38.25,56.447    C170.359,62.797,171.22,67.253,174.509,69.492z" data-original="#000000" class="active-path" data-old_color="#23c3ff" fill="#23c3ff"/>
		<path d="M328.705,61.115c-1.311-3.614-5.489-5.642-9.171-4.322l-124.332,44.724c-3.72,1.349-5.642,5.451-4.312,9.181    c1.023,2.84,3.739,4.742,6.761,4.742c0.803,0,1.606-0.144,2.429-0.42l124.312-44.733    C328.103,68.947,330.044,64.834,328.705,61.115z" data-original="#000000" class="active-path" data-old_color="#23c3ff" fill="#23c3ff"/>
		<path d="M210.024,150.41c-3.758,0-6.895,2.945-7.152,6.693c-0.239,3.939,2.744,7.373,6.684,7.631l71.68,4.771l0.526,0.02    c3.758,0,6.895-2.945,7.152-6.693c0.259-3.94-2.744-7.373-6.684-7.631L210.024,150.41z" data-original="#000000" class="active-path" data-old_color="#23c3ff" fill="#23c3ff"/>
	</g>
</g></g> </svg>
