<?xml version="1.0" encoding="iso-8859-1"?>
<!-- Generator: Adobe Illustrator 19.0.0, SVG Export Plug-In . SVG Version: 6.00 Build 0)  -->
<svg xmlns="http://www.w3.org/2000/svg" xmlns:xlink="http://www.w3.org/1999/xlink" version="1.1" id="Capa_1" x="0px" y="0px" viewBox="0 0 512 512" style="enable-background:new 0 0 512 512;" xml:space="preserve" width="512px" height="512px">
<g>
	<g>
		<path d="M512,155v-30h-60v-17.096c23.057-6.547,40-27.777,40-52.904c0-30.327-24.673-55-55-55c-30.327,0-55,24.673-55,55    c0,25.127,16.943,46.356,40,52.904V125h-60v30h30v60.642c-76.235,71.736-195.765,71.736-272,0V155h30v-30H90v-17.096    c23.057-6.547,40-27.777,40-52.904c0-30.327-24.673-55-55-55C44.673,0,20,24.673,20,55c0,25.127,16.943,46.356,40,52.904V125H0v30    h30v327H0v30h150v-30h-30V254.738c39.146,29.119,86.374,44.86,136,44.86c49.626,0,96.854-15.741,136-44.86V482h-30v30h150v-30h-30    V155H512z M50,55c0-13.785,11.215-25,25-25c13.785,0,25,11.215,25,25S88.785,80,75,80C61.215,80,50,68.785,50,55z M90,482H60V237    h30V482z M90,207H60v-52h30V207z M412,55c0-13.785,11.215-25,25-25c13.785,0,25,11.215,25,25s-11.215,25-25,25    C423.215,80,412,68.785,412,55z M452,482h-30V237h30V482z M452,207h-30v-52h30V207z" fill="#FFFFFF"/>
	</g>
</g>
<g>
</g>
<g>
</g>
<g>
</g>
<g>
</g>
<g>
</g>
<g>
</g>
<g>
</g>
<g>
</g>
<g>
</g>
<g>
</g>
<g>
</g>
<g>
</g>
<g>
</g>
<g>
</g>
<g>
</g>
</svg>
