<?xml version="1.0" encoding="iso-8859-1"?>
<svg version="1.1" id="Layer_1" xmlns="http://www.w3.org/2000/svg" xmlns:xlink="http://www.w3.org/1999/xlink" x="0px" y="0px" viewBox="0 0 512 512" style="enable-background:new 0 0 1024 1024;" xml:space="preserve">
    <g>
<path d="M713.045 393.045c-16.683 16.683-43.648 16.683-60.331 0l-68.139-68.096c-35.157 10.453-92.416 32.896-127.573 68.096-37.291 37.291-58.624 96.128-68.011 127.659l68.011 68.011c16.683 16.683 16.683 43.648 0 60.331l-170.667 170.667c-16 16-44.331 16-60.331 0l-115.584-115.627c-16.299-16.213-25.472-38.571-25.088-61.312 0.939-60.715 16.896-271.659 183.339-438.101 166.315-166.272 377.387-182.357 438.144-183.339 0.213 0 0.981 0 1.195 0 22.528 0 43.819 8.875 59.947 25.003l115.712 115.712c16.683 16.683 16.683 43.648 0 60.331l-170.624 170.667zM707.627 106.667c-53.248 0.896-235.435 15.189-378.624 158.379-143.701 143.701-157.525 326.485-158.336 378.624l85.504 85.547 110.336-110.336-55.168-55.168c-10.155-10.155-14.507-24.832-11.563-38.912 1.024-4.907 26.069-121.259 96.896-192.085s187.179-95.872 192.085-96.896c14.123-3.029 28.715 1.365 38.912 11.563l55.168 55.168 110.336-110.336-85.547-85.547zM673.92 670.251l-119.040 119.083v-298.453h298.453l-119.083 119.040 192.128 192.128-60.331 60.331z" />
</g>
</svg>